# xmcd
#
# Track frame offsets: 
#        150
#        22147
#        43526
#        68958
#        84394
#        115427
#        144384
#        163799
#        181349
#        200727
#        223733
#        250799
#        282813
#        298287
#
# Disc length: 4159 seconds
#
# Revision: 0
# Processed by: cddbd v1.5.2PL0 Copyright (c) Steve Scherf et al.
# Submitted via: ExactAudioCopy v1.0b3
#
DISCID=dd103d0e
DTITLE=B.B. King - The Blues King's Best CD2
DYEAR=2013
DGENRE=Blues
TTITLE0=The Thrill Is Gone
TTITLE1=Every Day I Have The Blues
TTITLE2=Guess Who
TTITLE3=Now Blue Can You Get?
TTITLE4=I Got Some Help (I Don't Really Need) [a k a Outside Help]
TTITLE5=Payin' The Cost To Be The Boss
TTITLE6=Sweet Sixteen
TTITLE7=That Evil Child
TTITLE8=Why I Sing The Blues
TTITLE9=You Know I Love You
TTITLE10=Sweet Little Angel
TTITLE11=All Over Again
TTITLE12=Caldonia
TTITLE13=Please Love Me
EXTD=
EXTT0=
EXTT1=
EXTT2=
EXTT3=
EXTT4=
EXTT5=
EXTT6=
EXTT7=
EXTT8=
EXTT9=
EXTT10=
EXTT11=
EXTT12=
EXTT13=
PLAYORDER=
